<svg id="Capa_1" enable-background="new 0 0 512.013 512.013" height="512" viewBox="0 0 512.013 512.013" width="512" xmlns="http://www.w3.org/2000/svg"><g><path d="m256.007 301.004c-33.091 0-60 26.909-60 60 0 15.965 6.361 30.401 16.56 41.16-.758 5.4-1.56 10.809-1.56 16.262v17.578c0 8.291 6.709 15 15 15s15-6.709 15-15v-17.13c4.823 1.252 9.791 2.13 15 2.13s10.177-.877 15-2.13v17.13c0 8.291 6.709 15 15 15s15-6.709 15-15v-17.578c0-5.453-.802-10.862-1.56-16.262 10.199-10.759 16.56-25.195 16.56-41.16 0-33.091-26.91-60-60-60z"/><path d="m486.401 205.609c5.859 5.859 15.352 5.859 21.211 0s5.859-15.352 0-21.211l-60-60c-4.585-4.585-12.528-5.669-18.314-2.813l-73.583 36.797c-6.674-9.955-15.114-18.472-24.382-26.023l77.794-97.244 79.56 52.368c6.885 4.585 16.201 2.71 20.801-4.16 4.6-6.899 2.739-16.201-4.16-20.801l-91-60c-6.489-4.336-15.161-2.944-20.039 3.105l-88.442 110.544c-10.818-4.977-22.634-7.822-34.839-9.457v-91.71c0-8.291-6.709-15-15-15s-15 6.709-15 15v91.712c-12.206 1.635-24.022 4.481-34.839 9.457l-88.444-110.544c-4.878-6.05-13.535-7.441-20.039-3.105l-91 60c-6.899 4.6-8.76 13.901-4.16 20.801 4.585 6.87 13.887 8.745 20.801 4.16l79.56-52.368 77.794 97.244c-9.267 7.551-17.708 16.066-24.38 26.019l-73.585-36.793c-5.786-2.9-12.729-1.802-17.314 2.813l-61 60c-5.859 5.859-5.859 15.352 0 21.211s15.352 5.859 21.211 0l53.354-52.354 64.29 32.144c-3.514 9.965-5.669 21.477-6.423 32.441l-95.459 23.617c-5.625 1.406-9.946 5.918-11.074 11.602l-30 150c-1.626 8.13 3.647 16.025 11.763 17.651 7.949 1.637 16.011-3.527 17.651-11.763l29.14-140.698 79.417-19.858c3.268 17.216 10.25 33.04 20.043 46.818l-60.319 38.108c-5.244 3.325-7.91 9.536-6.694 15.63l30 151c1.641 8.24 9.705 13.398 17.651 11.763 8.115-1.626 13.389-9.521 11.763-17.651l-27.979-140.878 54.19-34.235c15.159-28.374 44.724-47.943 79.081-47.943 34.354 0 63.915 19.565 79.076 47.933l54.196 34.244-27.979 140.878c-1.626 8.13 3.647 16.025 11.763 17.651 7.949 1.637 16.011-3.527 17.651-11.763l30-151c1.216-6.094-1.436-12.305-6.694-15.63l-60.315-38.112c9.791-13.777 16.771-29.603 20.039-46.816l80.417 19.86 28.14 140.698c1.641 8.24 9.705 13.398 17.651 11.763 8.115-1.626 13.389-9.521 11.763-17.651l-30-150c-1.143-5.684-5.449-10.195-11.074-11.602l-95.459-23.617c-.754-10.963-2.908-22.471-6.422-32.436l64.288-32.15z"/></g></svg>