<svg height="512pt" viewBox="0 -77 512.00057 512" width="512pt" xmlns="http://www.w3.org/2000/svg"><path d="m427.132812 178.738281c0 94.511719-76.617187 171.132813-171.132812 171.132813s-171.132812-76.621094-171.132812-171.132813c0-94.515625 76.617187-171.132812 171.132812-171.132812s171.132812 76.617187 171.132812 171.132812zm0 0" fill="#555a80"/><path d="m286.929688 347.085938c-10.027344 1.835937-20.367188 2.789062-30.921876 2.789062-94.523437 0-171.140624-76.628906-171.140624-171.140625s76.617187-171.128906 171.140624-171.128906c10.554688 0 20.894532.953125 30.921876 2.789062-79.761719 14.546875-140.214844 84.382813-140.214844 168.339844s60.453125 153.792969 140.214844 168.351563zm0 0" fill="#353959"/><path d="m324.652344 252.722656c6.09375-6.535156 13.878906-11.667968 22.984375-14.613281 9.105469-2.949219 18.421875-3.355469 27.191406-1.628906 13.015625-13.964844 18.28125-34.378907 11.984375-53.835938-9.242188-28.558593-39.890625-44.214843-68.449219-34.96875-28.558593 9.242188-44.214843 39.890625-34.972656 68.449219 6.296875 19.453125 22.527344 32.910156 41.261719 36.597656zm0 0" fill="#fff"/><path d="m187.347656 252.722656c-6.09375-6.535156-13.878906-11.667968-22.984375-14.613281-9.105469-2.949219-18.421875-3.355469-27.1875-1.628906-13.019531-13.964844-18.285156-34.378907-11.988281-53.835938 9.246094-28.558593 39.890625-44.214843 68.449219-34.96875 28.558593 9.242188 44.21875 39.890625 34.972656 68.449219-6.296875 19.453125-22.527344 32.910156-41.261719 36.597656zm0 0" fill="#fff"/><path d="m352.425781 199.550781c0 10.148438-8.226562 18.375-18.375 18.375-10.148437 0-18.375-8.226562-18.375-18.375 0-10.148437 8.226563-18.375 18.375-18.375 10.148438 0 18.375 8.226563 18.375 18.375zm0 0" fill="#555a80"/><path d="m196.324219 199.550781c0 10.148438-8.226563 18.375-18.375 18.375-10.148438 0-18.375-8.226562-18.375-18.375 0-10.148437 8.226562-18.375 18.375-18.375 10.148437 0 18.375 8.226563 18.375 18.375zm0 0" fill="#555a80"/><g fill="#1a1a1a"><path d="m324.652344 260.328125c2.085937 0 4.109375-.859375 5.5625-2.417969 5.382812-5.777344 12.21875-10.125 19.761718-12.566406 7.546876-2.441406 15.628907-2.925781 23.378907-1.402344 2.582031.507813 5.242187-.351562 7.035156-2.273437 15.347656-16.464844 20.578125-39.976563 13.65625-61.363281-10.519531-32.503907-45.53125-50.390626-78.027344-39.863282-32.5 10.519532-50.382812 45.523438-39.863281 78.027344 6.921875 21.382812 24.945312 37.367188 47.027344 41.714844.488281.097656.980468.144531 1.46875.144531zm-34.027344-46.546875c-7.9375-24.523438 5.554688-50.933594 30.078125-58.871094 4.769531-1.546875 9.605469-2.277344 14.367187-2.277344 19.726563 0 38.113282 12.597657 44.507813 32.355469 4.816406 14.882813 1.832031 31.136719-7.753906 43.324219-8.890625-1.078125-17.972657-.207031-26.527344 2.5625-8.558594 2.769531-16.429687 7.390625-23 13.46875-14.90625-4.257812-26.851563-15.675781-31.671875-30.5625zm0 0"/><path d="m360.03125 199.550781c0-14.328125-11.65625-25.980469-25.980469-25.980469s-25.980469 11.652344-25.980469 25.980469c0 14.324219 11.65625 25.980469 25.980469 25.980469s25.980469-11.65625 25.980469-25.980469zm-25.980469 10.773438c-5.941406 0-10.773437-4.832031-10.773437-10.773438 0-5.9375 4.832031-10.773437 10.773437-10.773437 5.941407 0 10.773438 4.832031 10.773438 10.773437 0 5.941407-4.832031 10.773438-10.773438 10.773438zm0 0"/><path d="m235.84375 218.464844c10.519531-32.5-7.363281-67.503906-39.863281-78.023438-32.507813-10.523437-67.503907 7.359375-78.027344 39.863282-6.921875 21.386718-1.6875 44.898437 13.660156 61.359374 1.792969 1.925782 4.453125 2.785157 7.03125 2.277344 7.753907-1.527344 15.835938-1.039062 23.378907 1.402344 7.542968 2.441406 14.378906 6.785156 19.765624 12.5625 1.453126 1.558594 3.472657 2.421875 5.5625 2.421875.484376 0 .976563-.046875 1.464844-.144531 22.085938-4.347656 40.105469-20.332032 47.027344-41.71875zm-46.140625 25.878906c-6.570313-6.078125-14.441406-10.699219-23-13.46875-6.183594-2-12.640625-3.011719-19.101563-3.011719-2.476562 0-4.960937.148438-7.425781.449219-9.582031-12.1875-12.570312-28.441406-7.753906-43.324219 3.84375-11.882812 12.085937-21.550781 23.207031-27.234375 11.121094-5.679687 23.789063-6.6875 35.667969-2.84375 24.523437 7.9375 38.015625 34.347656 30.078125 58.871094-4.816406 14.886719-16.761719 26.304688-31.671875 30.5625zm0 0"/><path d="m177.949219 173.570312c-14.324219 0-25.980469 11.652344-25.980469 25.980469 0 14.324219 11.65625 25.980469 25.980469 25.980469s25.980469-11.65625 25.980469-25.980469-11.65625-25.980469-25.980469-25.980469zm0 36.753907c-5.9375 0-10.773438-4.832031-10.773438-10.773438 0-5.9375 4.835938-10.773437 10.773438-10.773437s10.773437 4.832031 10.773437 10.773437c0 5.941407-4.832031 10.773438-10.773437 10.773438zm0 0"/><path d="m231.746094 303.714844c9.703125 0 18.40625-4.359375 24.253906-11.222656 5.847656 6.863281 14.550781 11.222656 24.253906 11.222656 17.566406 0 31.859375-14.289063 31.859375-31.855469 0-4.199219-3.40625-7.605469-7.605469-7.605469-4.199218 0-7.605468 3.40625-7.605468 7.605469 0 9.179687-7.46875 16.648437-16.648438 16.648437-9.179687 0-16.648437-7.46875-16.648437-16.648437 0-4.199219-3.402344-7.605469-7.605469-7.605469-4.199219 0-7.601562 3.40625-7.601562 7.605469 0 9.179687-7.46875 16.648437-16.652344 16.648437-9.179688 0-16.648438-7.46875-16.648438-16.648437 0-4.199219-3.40625-7.605469-7.605468-7.605469-4.199219 0-7.601563 3.40625-7.601563 7.605469 0 17.566406 14.289063 31.855469 31.855469 31.855469zm0 0"/><path d="m92.472656 178.738281c0-87.621093 69.269532-159.359375 155.925782-163.347656v57.65625c-18.242188.761719-36.089844 4.265625-53.167969 10.445313-3.949219 1.425781-5.992188 5.785156-4.5625 9.734374 1.429687 3.949219 5.789062 5.992188 9.738281 4.5625 15.414062-5.574218 31.523438-8.765624 47.992188-9.515624v60.671874c0 4.199219 3.402343 7.605469 7.601562 7.605469 4.203125 0 7.605469-3.40625 7.605469-7.605469v-60.671874c16.460937.75 32.574219 3.941406 47.996093 9.519531.855469.308593 1.726563.453125 2.585938.453125 3.113281 0 6.03125-1.921875 7.152344-5.019532 1.429687-3.949218-.613282-8.308593-4.566406-9.734374-17.082032-6.179688-34.9375-9.679688-53.167969-10.441407v-57.648437c30.042969 1.378906 58.878906 10.878906 83.820312 27.730468 3.480469 2.351563 8.207031 1.433594 10.558594-2.042968 2.351563-3.480469 1.4375-8.207032-2.042969-10.558594-29.566406-19.972656-64.125-30.53125-99.941406-30.53125-63.6875 0-119.691406 33.488281-151.355469 83.777344l-34.6875-34.6875c-1.597656-1.597656-3.832031-2.40625-6.066406-2.199219-2.25.207031-4.289063 1.398437-5.570313 3.257813l-53.933593 78.265624c-2.382813 3.457032-1.507813 8.191407 1.949219 10.574219 1.316406.910157 2.820312 1.34375 4.308593 1.34375 2.414063 0 4.792969-1.148437 6.265625-3.289062l48.75-70.742188 31.171875 31.171875c-10.746093 20.953125-17.457031 44.296875-19.140625 69l-37.191406-19.210937c-2.070312-1.066407-4.511719-1.128907-6.636719-.167969-2.121093.964844-3.679687 2.847656-4.238281 5.109375l-29.402344 119.632813c-1.003906 4.078124 1.488282 8.195312 5.566406 9.199218.613282.148438 1.222657.222656 1.820313.222656 3.421875 0 6.527344-2.324218 7.378906-5.792968l27.101563-110.265625 35.238281 18.203125c.472656 18.542968 3.761719 36.65625 9.722656 53.855468l-21.960937-7.226562c-3.964844-1.304688-8.234375.824219-9.578125 4.773438l-38.523438 113.335937c-1.351562 3.976563.773438 8.292969 4.75 9.644531.8125.277344 1.636719.40625 2.449219.40625 3.164062 0 6.121094-1.992187 7.199219-5.15625l36.101562-106.203125 27.171875 8.945313c4.425782 9.242187 9.675782 18.144531 15.71875 26.625 1.484375 2.078125 3.824219 3.1875 6.199219 3.1875 1.527344 0 3.070313-.457032 4.410156-1.410156 3.417969-2.441407 4.214844-7.1875 1.773438-10.609376-19.816407-27.789062-30.289063-60.582031-30.289063-94.832031zm0 0"/><path d="m511.777344 271.835938-29.402344-119.632813c-.558594-2.261719-2.117188-4.144531-4.238281-5.109375-2.121094-.960938-4.566407-.902344-6.636719.167969l-37.203125 19.214843c-1.671875-24.191406-8.253906-47.65625-19.140625-68.992187l31.183594-31.1875 48.75 70.746094c1.472656 2.140625 3.851562 3.289062 6.269531 3.289062 1.484375 0 2.988281-.433593 4.304687-1.34375 3.457032-2.382812 4.332032-7.117187 1.949219-10.574219l-53.929687-78.265624c-1.28125-1.859376-3.324219-3.050782-5.570313-3.257813-2.234375-.203125-4.472656.601563-6.070312 2.195313l-34.675781 34.679687c-8.65625-13.816406-19.222657-26.515625-31.527344-37.640625-3.113282-2.816406-7.921875-2.574219-10.738282.539062-2.816406 3.117188-2.574218 7.925782.539063 10.742188 34.246094 30.964844 53.886719 75.191406 53.886719 121.328125 0 90.171875-73.355469 163.53125-163.527344 163.53125-45.308594 0-87.445312-18.109375-118.644531-50.988281-2.894531-3.046875-7.707031-3.171875-10.75-.285156-3.046875 2.890624-3.175781 7.707031-.28125 10.75 34.097656 35.9375 80.152343 55.730468 129.675781 55.730468 70.976562 0 132.417969-41.585937 161.25-101.667968l27.261719-8.972657 36.101562 106.203125c1.078125 3.164063 4.03125 5.15625 7.199219 5.15625.8125 0 1.636719-.128906 2.449219-.40625 3.976562-1.351562 6.101562-5.667968 4.75-9.644531l-38.523438-113.335937c-1.34375-3.949219-5.621093-6.078126-9.578125-4.773438l-22.03125 7.25c5.894532-16.953125 9.3125-35.058594 9.796875-53.882812l35.234375-18.199219 27.101563 110.265625c.851562 3.46875 3.957031 5.792968 7.375 5.792968.601562 0 1.210937-.074218 1.824219-.222656 4.078124-1.003906 6.570312-5.121094 5.566406-9.199218zm0 0"/></g></svg>